<?xml version="1.0" encoding="UTF-8" standalone="no"?>
<svg
   width="21.521"
   height="20.499998"
   viewBox="0 0 21.521 20.499998"
   fill="none"
   version="1.1"
   id="svg4"
   sodipodi:docname="Like.svg"
   xmlns:inkscape="http://www.inkscape.org/namespaces/inkscape"
   xmlns:sodipodi="http://sodipodi.sourceforge.net/DTD/sodipodi-0.dtd"
   xmlns="http://www.w3.org/2000/svg"
   xmlns:svg="http://www.w3.org/2000/svg">
  <defs
     id="defs8">
    <inkscape:path-effect
       effect="powerstroke"
       id="path-effect11520"
       is_visible="true"
       lpeversion="1"
       offset_points="8,0.5"
       not_jump="false"
       sort_points="true"
       interpolator_type="CentripetalCatmullRom"
       interpolator_beta="0.78901734"
       start_linecap_type="zerowidth"
       linejoin_type="round"
       miter_limit="4"
       scale_width="0.4"
       end_linecap_type="zerowidth" />
  </defs>
  <sodipodi:namedview
     id="namedview6"
     pagecolor="#505050"
     bordercolor="#eeeeee"
     borderopacity="1"
     inkscape:showpageshadow="0"
     inkscape:pageopacity="0"
     inkscape:pagecheckerboard="0"
     inkscape:deskcolor="#505050"
     showgrid="false" />
  <g
     inkscape:groupmode="layer"
     id="layer3"
     inkscape:label="Layer 1"
     transform="translate(-0.34299999,-0.359)">
    <path
       style="fill:#f6f6f6;fill-opacity:1;fill-rule:evenodd;stroke:#f6f6f6;stroke-opacity:1"
       d="m 9.6475252,19.991666 0.8350628,0.917742 0.198431,-0.04961 c 0,0 0.6449,0.04961 0.677972,0.01654 0.03307,-0.03307 1.637054,-1.174049 1.637054,-1.174049 l 1.016959,1.397284 -1.645323,0.256307 -2.7780314,0.0083 z"
       id="path13552" />
    <path
       style="fill:#f6f6f6;fill-opacity:1;fill-rule:evenodd;stroke:#f6f6f6;stroke-opacity:1"
       d="m 12.721604,19.760579 9.471047,-10.7104677 1.426503,2.8530067 0.701559,11.108018 c 0,0 -9.30735,-0.04677 -9.798441,-0.07016 -0.491091,-0.02339 -1.800668,-3.180401 -1.800668,-3.180401 z"
       id="path13554" />
    <path
       style="fill:#f6f6f6;fill-opacity:1;fill-rule:evenodd;stroke:#f6f6f6;stroke-opacity:1"
       d="M 21.280623,9.6815145 22.075724,7.2962138 21.935412,5.3552339 21.514476,3.7416481 20.766147,2.408686 23.198218,-1.0289532 c 0,0 2.385301,4.9576837 2.408686,5.3084632 0.02339,0.3507795 0.7951,5.5423163 0.280624,5.86971 -0.514477,0.327394 -4.606905,-0.4677055 -4.606905,-0.4677055 z"
       id="path13558" />
    <path
       style="fill:#f6f6f6;fill-opacity:1;fill-rule:evenodd;stroke:#f6f6f6;stroke-opacity:1"
       d="m 20.532294,1.5902005 -1.379733,-1.35634749 -1.216035,-0.58463252 -1.426504,-0.16369711 -1.496659,0.18708241 -0.74833,0.28062361 -1.262806,0.58463248 -0.654788,0.77171502 -1.075724,1.2861915 -0.841871,-4.6069042 10.546771,-1.8942094 3.203786,2.94654787 z"
       id="path13560" />
    <path
       style="fill:#f6f6f6;fill-opacity:1;fill-rule:evenodd;stroke:#f6f6f6;stroke-opacity:1"
       d="M 12.557907,1.2160356 C 12.698218,1.1692646 14.33519,0.25723831 14.33519,0.25723831 l 1.894209,-0.42093542 1.122494,0.23385301 0.818486,0.16369711 0.724944,0.44432071 1.005568,0.91202678 0.771715,0.7483296 0.39755,-1.91759469 -3.507795,-1.94097991 -4.606904,0.070156 z"
       id="path13620" />
    <path
       style="fill:#f6f6f6;fill-opacity:1;fill-rule:evenodd;stroke:#f6f6f6;stroke-opacity:1"
       d="M 10.629138,2.6191537 7.7293602,-0.58463251 6.5600952,-1.9409799 10.746064,-1.7071269 Z"
       id="path13624" />
    <path
       style="fill:#f6f6f6;fill-opacity:1;fill-rule:evenodd;stroke:#f6f6f6;stroke-opacity:1"
       d="M 3.0634744,0.58463251 3.811804,0.2104677 c 0,0 0.6547884,-0.1169265 0.8184855,-0.1636971 C 4.7939866,0 5.1213809,-0.0701559 5.2149221,-0.0701559 5.3084631,-0.0701559 6.3374165,0 6.3374165,0 c 0,0 0.935412,0.32739421 1.0523385,0.32739421 0.1169265,0 0.935412,0.46770598 0.935412,0.46770598 L 10.149221,-2.174833 c 0,0 -13.3296219,-0.093541 -12.9320718,0.1169265 0.3975501,0.2104678 1.2628063,10.3129176 1.2628063,10.3129176 L 0.29231626,7.7346882 0.12861916,6.4309577 c 0,0 0.12277283,-1.3095768 0.12277283,-1.3329621 0,-0.023385 0.39755011,-1.4615813 0.39755011,-1.4615813 L 1.3563474,2.3092985 2.5548441,1.0055679 Z"
       id="path13626" />
    <path
       style="fill:#f6f6f6;fill-opacity:1;fill-rule:evenodd;stroke:#f6f6f6;stroke-opacity:1"
       d="m 0.3828125,8.4257813 0.3984375,1.1875 0.6523437,1.1406247 1.0507813,1.230469 1.8789062,2.085938 2.3984375,2.703124 2.4023438,2.65625 L 9.015625,20.171875 10.5,31.4375 c 0,0 -22.125,-4.25 -22.25,-4.875 -0.125,-0.625 6.6875,-16 6.6875,-16 z"
       id="path13628" />
  </g>
  <g
     id="Like"
     transform="translate(-0.34299999,-0.359)">
    <path
       id="Vector"
       d="m 12.064626,2.280571 c -5e-5,6.22e-5 -1.18e-4,1.477e-4 -2e-4,2.5e-4 l 0.0067,-0.00799 c -0.254465,0.2860473 -0.539551,0.6065159 -0.8465,0.95156 -0.07217,0.081125 -0.147083,0.1653313 -0.22415,0.2519591 C 10.926845,3.3935098 10.852009,3.3093673 10.776445,3.2244053 10.49723,2.910548 10.213642,2.5917748 9.9298977,2.2728264 8.8900341,1.1000168 7.5427491,0.43941813 6.192271,0.32026865 5.5055017,0.25967712 4.8186376,0.33863705 4.1677838,0.55818089 3.5073186,0.78096679 2.8871414,1.147341 2.34047,1.6555255 1.6896662,2.2615293 1.2002591,2.9850152 0.8646549,3.7608698 0.52227928,4.5523788 0.3393017,5.3993926 0.30565798,6.2414806 0.27120533,7.103829 0.39309178,7.9616073 0.66075441,8.7603509 0.93597775,9.5816567 1.3643831,10.338485 1.9351555,10.98219 c 2.6336469,2.966598 5.4236264,6.109293 8.3142805,9.36539 l -0.04017,-0.196026 c 0.0085,-0.02545 0.02359,-0.05338 0.04833,-0.07809 a 0.20000002,0.20000002 89.782975 0 0 0.282843,0.282843 c -0.02421,0.02423 -0.05188,0.03957 -0.07809,0.04833 a 0.20000765,0.19981214 59.946593 0 0 -0.212769,-0.05691 c 0.202912,0.228418 0.470626,0.352623 0.748785,0.352623 0.276088,0 0.544414,-0.122545 0.748842,-0.352602 l -0.116609,0.06443 c 0.01314,-0.0022 0.03366,-0.0069 0.0566,-0.0184 0.0119,-0.0059 0.02523,-0.0141 0.03861,-0.02525 0.01362,-0.01135 0.02691,-0.02549 0.03839,-0.04272 0.0115,-0.01725 0.02023,-0.03615 0.02591,-0.05602 0.0056,-0.01954 0.0077,-0.03819 0.0077,-0.05498 l -0.05044,0.132779 c 2.832772,-3.190889 5.619523,-6.329938 8.3144,-9.3655 C 20.651701,10.31794 21.072018,9.5539368 21.338552,8.7602721 21.615829,7.9346195 21.727928,7.075111 21.694881,6.2414813 21.660259,5.3681386 21.466638,4.524625 21.136367,3.7609448 20.786794,2.9526326 20.286863,2.2387501 19.660796,1.6557629 19.007617,1.0126057 18.301186,0.64201128 17.614516,0.45564493 16.868078,0.25305719 16.135058,0.26497912 15.480767,0.38548235 14.748106,0.52041903 14.089044,0.79527526 13.550502,1.1028352 12.915028,1.4657521 12.420757,1.8874536 12.072675,2.2711259 Z m 0.304299,0.2593231 C 12.69199,2.1837961 13.15037,1.7919839 13.748871,1.450182 14.255856,1.1606439 14.872609,0.90421625 15.553217,0.77886622 16.16049,0.66702273 16.8317,0.65765443 17.509744,0.84167962 18.131348,1.0103869 18.776871,1.3467543 19.384188,1.9446523 19.972501,2.4925887 20.440844,3.1604 20.76923,3.9197218 c 0.310406,0.7177461 0.493265,1.5127339 0.525965,2.337604 0.03119,0.7868515 -0.07478,1.5982674 -0.335832,2.3756045 -0.250862,0.7469972 -0.645392,1.4629067 -1.196589,2.0834467 -2.695016,3.035706 -5.481767,6.174755 -8.314539,9.365643 A 0.19999967,0.20000162 65.798655 0 0 11.3978,20.2148 c 0,-0.01676 0.0021,-0.0354 0.0077,-0.05491 0.0057,-0.01985 0.01439,-0.03874 0.02588,-0.05597 0.01148,-0.01721 0.02475,-0.03135 0.03836,-0.04269 0.01337,-0.01114 0.02669,-0.01929 0.03858,-0.02523 0.02291,-0.01146 0.04341,-0.0162 0.05653,-0.01838 l -0.11664,0.06443 c -0.134305,0.151143 -0.296447,0.218298 -0.449833,0.218298 -0.154617,0 -0.316368,-0.06814 -0.44974,-0.218276 a 0.19999211,0.20018746 60.002602 0 0 -0.212769,-0.05691 c -0.02631,0.0088 -0.05403,0.0241 -0.07826,0.0483 l 0.282843,0.282843 c 0.02471,-0.02474 0.0398,-0.05271 0.0483,-0.07826 a 0.19998069,0.2002211 33.384513 0 0 -0.04017,-0.196024 C 7.6579123,16.825925 4.8679328,13.68323 2.2343652,10.716721 1.7011685,10.115393 1.2990453,9.4062069 1.0400257,8.6332553 0.78803483,7.8812785 0.67279514,7.0720234 0.70533895,6.2574532 0.73711966,5.4619956 0.90995526,4.6636744 1.2317806,3.9196739 1.5471016,3.1907102 2.0056016,2.5139042 2.6129337,1.9483794 3.1187778,1.4781481 3.6898296,1.1415464 4.2956328,0.93719886 4.8928828,0.73573649 5.5241686,0.66287783 6.1571131,0.71872055 7.4013495,0.82849659 8.6545348,1.4373411 9.6302686,2.5378217 9.914787,2.857643 10.198375,3.1764161 10.477572,3.4902536 c 0.127237,0.1430609 0.252424,0.2838162 0.373483,0.4199311 a 0.2,0.2 45.003775 0 0 0.298872,1.99e-5 c 0.130155,-0.146303 0.255542,-0.287245 0.3736,-0.41995 0.306951,-0.3450472 0.592037,-0.6655158 0.846503,-0.9515632 z"
       stroke="#101010"
       sodipodi:nodetypes="ccccccscccccccccc"
       style="fill:#2e2e2e;fill-opacity:1;fill-rule:nonzero;stroke:none"
       inkscape:original-d="m 12.2208,2.40551 -2e-4,2.5e-4 L 11.3741,3.35732 11.0005,3.77727 10.627,3.35732 9.78047,2.40576 9.77992,2.40514 C 7.78271,0.152585 4.59762,-0.169649 2.47664,1.80201 -0.0175439,4.1245 -0.15494,8.32357 2.0848,10.8495 l 8.3142,9.3653 c 0,10e-5 0,10e-5 1e-4,10e-5 0.3381,0.3806 0.8604,0.3806 1.1986,0 0,0 10e-5,0 10e-5,-10e-5 l 8.3144,-9.3655 10e-5,-10e-5 C 22.1559,8.32335 22.0186,4.12461 19.5245,1.80213 17.079003,-0.60543824 13.717881,0.75535534 12.2208,2.40551 Z"
       inkscape:path-effect="#path-effect11520"
       sodipodi:insensitive="true" />
  </g>
</svg>
